<svg width="20" height="20" viewBox="0 0 20 20" fill="none" xmlns="http://www.w3.org/2000/svg">
<path fill-rule="evenodd" clip-rule="evenodd" d="M4.21756 2.46239C4.30518 2.39873 4.39579 2.34016 4.48995 2.28628C4.52019 2.35365 4.56297 2.41675 4.61829 2.47207C5.69375 3.54748 6.53791 4.39031 7.28205 4.98589C8.0354 5.58884 8.7409 5.98461 9.55376 6.11336C10.0504 6.19201 10.5563 6.19201 11.0529 6.11336C11.8431 5.98821 12.5316 5.6108 13.2614 5.03607C13.9819 4.46866 14.7907 3.66894 15.8089 2.65152C15.8416 2.61888 15.8699 2.58352 15.8938 2.54617C16.2017 2.78601 16.4746 3.06806 16.7042 3.38419C17.5 4.47946 17.5 6.04185 17.5 9.16663V10.8333C17.5 13.9581 17.5 15.5205 16.7042 16.6157C16.4472 16.9695 16.1362 17.2805 15.7824 17.5375C14.6872 18.3333 13.1248 18.3333 10 18.3333C6.87522 18.3333 5.31283 18.3333 4.21756 17.5375C3.86383 17.2805 3.55276 16.9695 3.29576 16.6157C2.5 15.5205 2.5 13.9581 2.5 10.8333V9.16663C2.5 6.04185 2.5 4.47946 3.29576 3.38419C3.55276 3.03046 3.86383 2.71939 4.21756 2.46239ZM6.66667 7.70829C6.32149 7.70829 6.04167 7.98811 6.04167 8.33329C6.04167 8.67847 6.32149 8.95829 6.66667 8.95829H13.3333C13.6785 8.95829 13.9583 8.67847 13.9583 8.33329C13.9583 7.98811 13.6785 7.70829 13.3333 7.70829H6.66667ZM6.66667 11.0416C6.32149 11.0416 6.04167 11.3214 6.04167 11.6666C6.04167 12.0118 6.32149 12.2916 6.66667 12.2916H13.3333C13.6785 12.2916 13.9583 12.0118 13.9583 11.6666C13.9583 11.3214 13.6785 11.0416 13.3333 11.0416H6.66667ZM6.66667 14.375C6.32149 14.375 6.04167 14.6548 6.04167 15C6.04167 15.3451 6.32149 15.625 6.66667 15.625H13.3333C13.6785 15.625 13.9583 15.3451 13.9583 15C13.9583 14.6548 13.6785 14.375 13.3333 14.375H6.66667Z" fill="#0044C0"/>
<path d="M10 1.66663C12.2499 1.66663 13.6899 1.66663 14.7286 1.96369C13.795 2.89487 13.0967 3.57475 12.4881 4.05404C11.8468 4.55908 11.3552 4.7999 10.8574 4.87875C10.4903 4.93688 10.1164 4.93688 9.74931 4.87875C9.23719 4.79764 8.73182 4.54516 8.06314 4.00998C7.44053 3.51166 6.72418 2.80865 5.76383 1.84969C6.75728 1.66663 8.08535 1.66663 10 1.66663Z" fill="#0044C0"/>
</svg>
