<svg width="52" height="17" viewBox="0 0 52 17" fill="none" xmlns="http://www.w3.org/2000/svg">
<rect width="52" height="17" rx="3" fill="url(#paint0_linear_1_289)" fill-opacity="0.3"/>
<path d="M14.347 11.208H9.837V8.689H14.017V7.908H9.837V5.411H14.336V4.63H8.968V12H14.347V11.208ZM18.7989 9.327L20.8669 6.577H19.8549L18.1829 8.81L16.5109 6.577H15.4989L17.5669 9.327L15.4989 12H16.5109L18.1829 9.833L19.8549 12H20.8669L18.7989 9.327ZM25.3233 6.445C24.3883 6.445 23.6733 6.786 23.1673 7.446V6.577H22.3313V13.87H23.1673V11.142C23.6733 11.813 24.3883 12.143 25.3233 12.143C26.0603 12.143 26.6983 11.879 27.2263 11.351C27.7543 10.823 28.0293 10.13 28.0293 9.294C28.0293 8.458 27.7543 7.776 27.2263 7.248C26.6983 6.72 26.0603 6.445 25.3233 6.445ZM25.1913 11.395C24.6523 11.395 24.1793 11.208 23.7723 10.812C23.3653 10.416 23.1673 9.91 23.1673 9.294C23.1673 8.678 23.3653 8.172 23.7723 7.776C24.1793 7.38 24.6523 7.182 25.1913 7.182C25.7633 7.182 26.2363 7.38 26.6323 7.765C27.0173 8.161 27.2153 8.667 27.2153 9.294C27.2153 9.932 27.0173 10.438 26.6323 10.823C26.2363 11.208 25.7633 11.395 25.1913 11.395ZM34.4468 9.151C34.4138 8.359 34.1498 7.71 33.6438 7.204C33.1378 6.698 32.5218 6.445 31.7848 6.445C31.0148 6.445 30.3548 6.72 29.8048 7.248C29.2548 7.776 28.9798 8.469 28.9798 9.305C28.9798 10.141 29.2438 10.823 29.7938 11.351C30.3328 11.879 30.9818 12.143 31.7298 12.143C32.3458 12.143 32.8738 12 33.3248 11.703C33.7758 11.406 34.1058 10.977 34.3258 10.416L33.5778 10.24C33.2258 11.021 32.6098 11.406 31.7298 11.406C31.2348 11.406 30.7948 11.23 30.4208 10.878C30.0358 10.526 29.8268 10.053 29.7938 9.459H34.4468V9.151ZM31.7848 7.182C32.2468 7.182 32.6428 7.336 32.9838 7.622C33.3138 7.908 33.5228 8.315 33.5998 8.832H29.8268C29.9038 8.326 30.1348 7.93 30.5088 7.633C30.8828 7.336 31.3118 7.182 31.7848 7.182ZM38.9129 6.522C37.9669 6.522 37.2409 6.984 36.7349 7.908V6.577H35.8879V12H36.7349V9.91C36.7349 9.151 36.9219 8.535 37.2959 8.062C37.6699 7.6 38.2089 7.358 38.9129 7.358C39.0559 7.358 39.1659 7.369 39.2319 7.369L39.2979 6.566C39.1879 6.544 39.0669 6.522 38.9129 6.522ZM43.5095 11.021C43.2015 11.241 42.8935 11.351 42.5855 11.351C42.2775 11.351 42.0245 11.263 41.8485 11.065C41.6725 10.867 41.5845 10.603 41.5845 10.251V7.281H43.5205V6.577H41.5845V4.85H40.7375V6.577H39.5605V7.281H40.7375V10.306C40.7375 10.9 40.8915 11.351 41.2215 11.67C41.5405 11.989 41.9805 12.143 42.5305 12.143C42.9485 12.143 43.3665 12 43.7845 11.714L43.5095 11.021Z" fill="black"/>
<defs>
<linearGradient id="paint0_linear_1_289" x1="48" y1="-2.50001" x2="-35" y2="43.5" gradientUnits="userSpaceOnUse">
<stop stop-color="#0044C0"/>
<stop offset="1" stop-color="#05122B"/>
</linearGradient>
</defs>
</svg>
